<svg xmlns="http://www.w3.org/2000/svg" width="180" height="36" fill="none" viewBox="0 0 180 36"><path fill="#111AFF" d="M31.18 34.398h3.932c4.637 0 8.433-3.82 8.433-8.49V10.094c0-4.67-3.795-8.49-8.434-8.49h-3.93c-4.638 0-8.434 3.82-8.434 8.49v15.816c0 4.669 3.794 8.489 8.433 8.489m-1.41-23.596c0-1.868 1.52-3.398 3.377-3.398s3.375 1.53 3.375 3.398v14.396c0 1.868-1.519 3.398-3.375 3.398s-3.376-1.53-3.376-3.398zM12.5 1.934v24.339c0 1.626-1.315 2.404-2.938 2.404S6.62 27.9 6.62 26.273v-6.798H0v8.382s.076 6.54 9.518 6.54 9.954-6.369 9.97-6.924l.008-25.538h-6.995zM145.643 20.329h9.085V14.79h-9.085v-7.1h9.761V1.955h-16.76v31.915h16.874v-5.749h-9.875zM100.36 1.602c-4.638 0-8.433 3.82-8.433 8.49v15.815c0 4.67 3.794 8.489 8.433 8.489h3.931c4.637 0 8.433-3.82 8.433-8.489V10.092c0-4.67-3.794-8.49-8.433-8.49zm5.34 23.596c0 1.868-1.519 3.398-3.375 3.398s-3.376-1.528-3.376-3.398V10.802c0-1.868 1.519-3.398 3.376-3.398s3.375 1.53 3.375 3.398zM91.955 33.87l-8.83-16.444 8.663-15.47h-7.253L76.492 16.92V1.956h-6.988v31.915h6.988V18.672l8.141 15.199zM173.668 1.956H162.66l-6.151 31.915h6.642l1.373-7.514h7.33l1.201 7.514h6.946zm-8.081 18.92 2.683-13.89 2.683 13.89h-5.3660000000000005M134.18 22.405c-.244-1.006-.677-1.673-1.573-1.987 1.928-.886 3.014-2.831 3.014-5.642V9.842a7.85 7.85 0 0 0-1.302-4.34c-1.363-2.136-3.7-3.547-6.356-3.547h-11.968v31.916h6.998V23.397l4.481-1.416 2.617 11.89h6.816zm-5.55-8.057c0 1.53-.969 2.36-2.058 2.715-1.009.328-3.579 1.155-3.579 1.155V6.993h3.245c1.15 0 2.392.857 2.392 2.377zM66.828 22.977s.128-4.317-4.08-5.322a5.76 5.76 0 0 0 3.58-4.904l.019-4.159a6.61 6.61 0 0 0-3.91-6.027 6.7 6.7 0 0 0-2.697-.609H46.794v31.915h13.014s1.11.013 2.208-.359a6.98 6.98 0 0 0 4.815-6.644l-.004-3.89zM53.743 6.258h3.356c1.259.048 2.28 1.07 2.28 2.328v3.386c0 1.259-1.082 1.869-2.294 2.256-1.617.515-3.344 1.058-3.344 1.058V6.258zm6.046 19.877a2.536 2.536 0 0 1-2.537 2.537h-3.51v-8.333l3.593-1.136c1.816 0 2.453 1.88 2.453 3.234v3.696z"/></svg>